<?xml version="1.0" standalone="no"?>
<!DOCTYPE svg PUBLIC "-//W3C//DTD SVG 20010904//EN"
 "http://www.w3.org/TR/2001/REC-SVG-20010904/DTD/svg10.dtd">
<svg version="1.0" xmlns="http://www.w3.org/2000/svg"
 width="925.000000pt" height="520.000000pt" viewBox="0 0 925.000000 520.000000"
 preserveAspectRatio="xMidYMid meet">
<metadata>
Created by potrace 1.16, written by Peter Selinger 2001-2019
</metadata>
<g transform="translate(0.000000,520.000000) scale(0.100000,-0.100000)"
fill="#000000" stroke="none">
<path d="M6843 4383 c-16 -16 -45 -48 -64 -73 -19 -25 -42 -54 -51 -64 -10
-11 -28 -35 -41 -53 l-22 -33 -88 0 c-132 0 -182 -29 -169 -98 6 -30 58 -54
101 -46 17 4 31 2 31 -3 0 -5 -36 -77 -80 -161 -44 -84 -80 -156 -80 -160 0
-11 -93 -106 -180 -184 -161 -143 -303 -228 -398 -236 -68 -6 -126 18 -143 60
-14 35 -7 159 12 201 11 24 18 27 59 27 127 0 380 116 506 232 169 156 142
338 -50 338 -50 0 -150 -35 -218 -76 -128 -78 -370 -346 -418 -464 -8 -19 -28
-46 -44 -60 -17 -14 -45 -38 -62 -55 -43 -40 -92 -78 -115 -89 -11 -5 -19 -13
-19 -18 0 -4 -5 -8 -10 -8 -6 0 -20 -9 -32 -20 -12 -10 -25 -17 -30 -14 -4 3
-8 -1 -8 -8 0 -8 -10 -14 -21 -15 -28 -2 -59 -31 -59 -55 0 -21 22 -24 42 -5
7 6 18 12 23 12 18 1 65 28 65 37 0 5 4 7 9 4 8 -6 84 39 111 65 8 8 31 25 50
38 19 13 41 31 48 39 10 13 12 8 12 -30 0 -25 7 -61 15 -80 27 -67 135 -128
226 -128 120 0 341 119 505 272 62 59 63 59 53 26 -17 -60 -11 -150 14 -198
19 -38 30 -48 72 -62 68 -23 165 -22 261 2 98 26 261 104 340 164 l59 44 6
-58 c7 -73 37 -115 109 -154 68 -37 146 -44 226 -21 218 63 493 292 675 563
107 159 200 281 256 335 l40 38 -4 -153 c-7 -278 -3 -265 -86 -354 -113 -121
-288 -344 -397 -507 -83 -124 -98 -152 -89 -168 21 -41 46 -22 120 89 62 92
211 294 244 328 5 6 50 57 99 113 99 113 105 114 106 16 1 -142 51 -269 120
-307 79 -44 226 4 373 121 70 57 209 195 295 296 43 51 55 95 26 95 -8 0 -86
-71 -172 -158 -188 -190 -271 -247 -360 -247 -48 0 -57 4 -82 32 -16 18 -34
49 -40 70 -14 46 -26 206 -22 285 l3 57 92 77 c51 43 205 162 343 265 138 104
254 195 258 204 11 29 7 52 -15 79 -28 35 -56 32 -105 -12 -23 -20 -113 -98
-200 -172 -87 -74 -205 -178 -264 -231 l-105 -95 3 40 c1 23 10 105 19 183 18
163 17 168 -52 179 -112 16 -162 -29 -375 -341 -49 -71 -115 -165 -147 -209
-121 -164 -370 -374 -513 -433 -109 -45 -205 -22 -230 53 -15 45 -8 139 13
181 15 28 21 31 84 35 82 7 139 26 256 84 108 54 166 93 236 158 64 61 91 111
97 180 16 167 -190 196 -397 56 -137 -94 -322 -297 -386 -425 -28 -55 -44 -72
-148 -151 -128 -96 -287 -163 -411 -171 -79 -5 -82 -5 -114 24 -28 25 -32 35
-32 75 2 71 53 196 135 328 115 184 137 217 177 263 28 31 13 28 430 87 237
33 311 49 318 68 3 9 -60 12 -292 12 l-296 0 60 78 c33 42 60 86 60 98 0 23
-31 54 -73 72 -40 17 -49 15 -84 -15z m-587 -357 c19 -15 18 -16 -15 -81 -49
-96 -140 -176 -282 -248 -78 -40 -131 -60 -166 -64 -34 -4 -53 -2 -53 5 0 29
169 215 268 294 120 97 202 127 248 94z m1549 0 c18 -13 18 -15 1 -60 -20 -53
-95 -139 -166 -191 -110 -81 -253 -145 -322 -145 l-29 0 18 31 c36 61 145 181
235 256 131 109 216 144 263 109z"/>
<path d="M5373 4110 c-66 -23 -113 -49 -113 -61 0 -6 -4 -8 -8 -5 -5 3 -20 -6
-35 -20 -14 -13 -31 -24 -37 -24 -5 0 -10 -4 -10 -10 0 -5 -6 -10 -12 -10 -10
0 -12 -21 -10 -79 l3 -79 32 30 c18 16 43 37 57 46 14 9 39 29 56 45 32 30 41
36 116 75 51 27 115 27 131 0 9 -13 4 -30 -17 -72 -28 -56 -114 -156 -134
-156 -6 0 -12 -3 -14 -7 -4 -11 -86 -67 -128 -88 -19 -10 -37 -21 -40 -24 -11
-13 -51 -31 -59 -27 -4 3 -6 -6 -3 -19 5 -28 40 -35 64 -12 7 6 20 13 28 15
71 14 269 146 330 220 32 38 60 115 60 163 0 17 -12 42 -31 64 -49 55 -132 68
-226 35z"/>
<path d="M140 2635 l0 -35 1490 0 1490 0 0 29 c0 25 5 30 28 34 15 2 -656 5
-1490 6 l-1518 1 0 -35z"/>
<path d="M140 2475 l0 -35 1490 0 1490 0 0 29 c0 25 5 30 28 34 15 2 -656 5
-1490 6 l-1518 1 0 -35z"/>
<path d="M520 2080 l0 -60 -57 0 c-63 0 -126 -24 -157 -58 -49 -56 -85 -223
-106 -487 -5 -77 -24 -293 -41 -480 -35 -383 -34 -449 5 -529 30 -61 72 -88
159 -100 46 -7 47 -8 47 -45 0 -20 6 -46 14 -57 14 -18 28 -19 337 -17 177 2
325 5 327 8 3 3 7 30 10 60 l4 55 47 0 c56 0 120 28 149 64 41 53 55 120 48
230 -14 211 -87 1024 -97 1081 -16 91 -38 160 -62 197 -30 45 -98 78 -163 78
l-51 0 -6 50 c-3 28 -9 55 -12 60 -4 6 -85 10 -201 10 l-194 0 0 -60z m260
-250 c36 -198 147 -341 311 -401 32 -12 66 -30 75 -40 16 -18 16 -19 -22 -19
-104 0 -266 138 -342 290 -59 119 -85 233 -66 285 6 16 8 16 17 -1 6 -10 18
-61 27 -114z m108 28 c21 -137 96 -244 215 -304 45 -23 67 -48 54 -60 -3 -3
-38 11 -77 31 -116 62 -197 170 -225 302 -17 78 -11 148 10 119 7 -9 17 -49
23 -88z m-343 5 c14 -154 79 -323 166 -433 69 -87 71 -89 143 -142 85 -62 151
-93 241 -113 82 -18 98 -27 93 -47 -5 -24 -127 5 -223 53 -212 105 -370 301
-429 536 -24 95 -34 211 -20 226 15 14 22 -6 29 -80z m105 35 c35 -164 45
-199 71 -256 55 -123 153 -237 252 -295 39 -23 114 -49 180 -62 18 -4 27 -12
27 -25 0 -24 -11 -25 -81 -4 -222 65 -408 268 -464 506 -16 70 -20 188 -6 188
5 0 14 -24 21 -52z m-180 -241 c43 -140 114 -260 219 -371 76 -79 144 -132
221 -171 63 -32 210 -75 256 -75 23 0 33 -5 37 -20 3 -11 2 -22 -1 -24 -28
-17 -308 64 -327 94 -3 5 -24 18 -48 29 -58 28 -187 148 -241 225 -93 130
-140 241 -176 420 -21 106 -20 153 3 168 9 5 15 -22 24 -99 6 -58 22 -137 33
-176z m-125 45 c13 -60 35 -139 49 -176 84 -222 288 -440 504 -538 77 -35 200
-68 253 -68 38 0 74 -24 63 -42 -15 -23 -226 25 -344 79 -301 137 -610 590
-566 828 4 20 10 35 13 32 2 -3 15 -55 28 -115z m-15 -304 c84 -169 194 -303
335 -410 142 -108 310 -175 485 -193 60 -6 79 -16 80 -39 0 -32 -324 45 -442
105 -176 89 -382 300 -479 492 -27 53 -50 147 -36 147 4 0 29 -46 57 -102z
m270 -523 c0 -36 -191 -112 -305 -121 -106 -9 -118 29 -13 40 105 11 165 28
225 62 63 36 93 42 93 19z m105 -64 c3 -5 -9 -21 -27 -34 -128 -96 -394 -181
-457 -147 -38 20 -8 37 81 45 109 9 217 45 303 100 72 46 89 52 100 36z m89
-82 c-117 -124 -289 -201 -499 -224 -49 -6 -63 -4 -74 9 -21 26 -6 33 86 39
146 10 294 67 418 161 72 55 116 64 69 15z m136 -23 c0 -20 -109 -118 -193
-175 -92 -61 -144 -81 -210 -81 l-52 1 50 18 c139 50 268 133 354 225 27 28
51 34 51 12z m60 -366 c0 -20 -7 -20 -275 -20 -268 0 -275 0 -275 20 0 20 7
20 275 20 268 0 275 0 275 -20z"/>
<path d="M2600 1605 l0 -355 44 0 44 0 4 178 c3 196 12 228 68 257 41 21 103
19 131 -4 24 -19 24 -23 27 -225 l3 -206 45 0 44 0 0 210 c0 231 -6 262 -60
294 -67 39 -174 29 -229 -23 l-31 -29 0 129 0 129 -45 0 -45 0 0 -355z"/>
<path d="M5890 1605 l0 -355 45 0 45 0 0 355 0 355 -45 0 -45 0 0 -355z"/>
<path d="M8130 1605 l0 -355 45 0 c43 0 45 1 45 30 l0 31 39 -31 c55 -44 137
-52 200 -18 57 29 77 57 97 138 18 70 15 181 -7 255 -15 54 -76 111 -128 120
-67 11 -128 -4 -167 -40 l-34 -32 0 128 0 129 -45 0 -45 0 0 -355z m281 85
c40 -22 54 -68 54 -180 0 -124 -15 -163 -72 -186 -30 -13 -41 -13 -76 -2 -52
17 -74 48 -88 122 -18 100 14 226 63 246 31 12 95 12 119 0z"/>
<path d="M1970 1880 l0 -40 110 0 110 0 0 -295 0 -295 50 0 50 0 0 295 0 295
115 0 115 0 0 40 0 40 -275 0 -275 0 0 -40z"/>
<path d="M3870 1880 l0 -40 115 0 115 0 0 -295 0 -295 50 0 50 0 0 295 0 295
110 0 110 0 0 40 0 40 -275 0 -275 0 0 -40z"/>
<path d="M6920 1585 l0 -335 50 0 50 0 0 155 0 155 170 0 170 0 0 -155 0 -155
50 0 50 0 0 335 0 335 -50 0 -50 0 0 -140 0 -140 -170 0 -170 0 0 140 0 140
-50 0 -50 0 0 -335z"/>
<path d="M5436 1843 c-12 -68 -16 -73 -47 -73 -27 0 -29 -3 -29 -35 0 -32 2
-35 30 -35 l30 0 0 -198 c0 -220 4 -234 64 -251 19 -5 55 -6 80 -4 46 6 46 6
46 44 0 37 0 38 -33 32 -62 -10 -67 5 -67 203 l0 174 45 0 c45 0 45 0 45 35 0
35 0 35 -45 35 l-45 0 0 55 0 55 -34 0 c-31 0 -34 -3 -40 -37z"/>
<path d="M3273 1771 c-76 -20 -132 -74 -153 -150 -13 -46 -13 -176 0 -222 16
-56 51 -101 100 -129 38 -21 58 -25 125 -24 92 0 148 23 185 74 27 38 21 56
-21 65 -26 6 -35 3 -53 -18 -30 -36 -58 -47 -114 -47 -77 0 -132 56 -132 135
l0 35 180 0 180 0 0 25 c0 68 -34 169 -69 205 -42 45 -155 70 -228 51z m153
-102 c20 -19 44 -73 44 -101 0 -5 -59 -8 -131 -8 l-132 0 6 37 c7 43 50 90 92
102 40 10 92 -2 121 -30z"/>
<path d="M4523 1766 c-61 -20 -98 -50 -125 -104 -20 -40 -23 -62 -23 -152 1
-131 23 -187 93 -231 109 -69 286 -37 337 61 17 32 15 35 -33 45 -28 6 -36 3
-48 -14 -35 -49 -144 -69 -193 -35 -28 20 -60 88 -61 127 l0 27 180 0 180 0 0
43 c0 180 -139 285 -307 233z m154 -83 c21 -14 53 -79 53 -108 0 -13 -22 -15
-130 -15 -71 0 -130 3 -130 8 0 28 24 82 44 101 41 39 115 45 163 14z"/>
<path d="M6242 1771 c-53 -14 -110 -58 -134 -104 -16 -31 -23 -65 -26 -133 -9
-183 54 -273 201 -290 76 -9 161 17 205 63 40 43 38 64 -7 76 -30 7 -37 5 -55
-16 -30 -36 -58 -47 -114 -47 -77 0 -132 58 -132 140 l0 30 181 0 182 0 -7 63
c-10 89 -50 166 -102 195 -46 25 -140 36 -192 23z m147 -95 c24 -22 51 -74 51
-101 0 -13 -20 -15 -131 -15 l-131 0 7 38 c17 94 135 140 204 78z"/>
<path d="M4890 1759 c0 -7 15 -33 34 -60 19 -26 56 -77 81 -114 l47 -67 -78
-114 c-44 -63 -85 -123 -93 -134 -13 -19 -11 -20 40 -20 l54 0 64 100 c36 55
66 100 67 100 2 0 33 -45 69 -100 l66 -100 51 0 c40 0 49 3 44 15 -3 8 -42 66
-86 129 -44 63 -80 118 -80 123 0 6 34 59 76 119 42 60 79 114 81 121 4 10 -9
13 -46 13 l-51 0 -62 -96 -61 -96 -61 96 -61 96 -47 0 c-29 0 -48 -4 -48 -11z"/>
<path d="M5670 1510 l0 -260 50 0 50 0 0 260 0 260 -50 0 -50 0 0 -260z"/>
<path d="M7591 1558 c4 -192 6 -216 25 -248 26 -46 66 -65 134 -65 75 0 103
10 139 46 l31 31 0 -36 c0 -36 0 -36 45 -36 l45 0 0 260 0 260 -50 0 -50 0 0
-182 c0 -164 -2 -186 -19 -212 -27 -40 -57 -55 -112 -56 -81 0 -83 8 -87 246
l-3 204 -51 0 -50 0 3 -212z"/>
<path d="M1942 703 l3 -278 43 -3 42 -3 0 280 0 281 -45 0 -45 0 2 -277z"/>
<path d="M4912 703 l3 -278 223 -3 222 -2 0 35 0 35 -180 0 -180 0 0 90 0 90
160 0 160 0 0 35 0 35 -160 0 -160 0 0 85 0 85 170 0 170 0 0 35 0 35 -215 0
-215 0 2 -277z"/>
<path d="M3996 933 c-2 -10 -7 -33 -11 -50 -5 -26 -11 -33 -31 -33 -20 0 -24
-5 -24 -30 0 -25 4 -30 25 -30 l25 0 0 -162 c1 -176 5 -193 55 -206 14 -4 44
-6 66 -4 36 4 39 7 39 33 0 24 -4 29 -24 29 -56 0 -56 0 -56 161 l0 149 35 0
c32 0 35 2 35 30 0 28 -3 30 -35 30 l-35 0 0 50 c0 49 -1 50 -29 50 -20 0 -31
-6 -35 -17z"/>
<path d="M7020 938 c0 -7 -5 -30 -11 -50 -8 -31 -15 -38 -34 -38 -21 0 -25 -5
-25 -30 0 -25 4 -30 25 -30 l25 0 0 -159 c0 -152 1 -161 23 -185 22 -25 42
-31 105 -28 29 2 32 5 32 32 0 26 -4 30 -28 30 -48 0 -52 12 -52 167 l0 143
40 0 c38 0 40 2 40 30 0 28 -2 30 -40 30 l-40 0 0 50 c0 49 -1 50 -30 50 -17
0 -30 -5 -30 -12z"/>
<path d="M2290 853 c-8 -3 -27 -17 -42 -31 l-28 -26 0 27 c0 24 -4 27 -35 27
l-35 0 0 -215 0 -215 40 0 40 0 0 156 0 156 34 34 c40 40 68 43 101 9 25 -24
25 -27 25 -190 l0 -165 39 0 39 0 4 154 c3 137 5 158 24 182 26 35 68 50 99
36 35 -16 45 -68 45 -229 l0 -143 41 0 41 0 -4 178 c-4 197 -12 229 -68 252
-47 20 -126 8 -158 -23 l-26 -26 -33 30 c-28 24 -42 29 -81 28 -26 0 -54 -3
-62 -6z"/>
<path d="M2944 846 c-18 -8 -37 -22 -43 -33 -9 -16 -10 -15 -11 10 0 25 -3 27
-40 27 l-40 0 0 -295 0 -295 40 0 40 0 0 105 c0 104 0 105 19 86 27 -27 91
-43 143 -35 63 10 102 54 118 129 15 73 8 190 -15 238 -31 66 -134 96 -211 63z
m90 -56 c51 -19 77 -123 56 -223 -13 -67 -36 -87 -95 -87 -54 0 -81 29 -96
101 -28 138 42 245 135 209z"/>
<path d="M3355 850 c-43 -13 -89 -62 -103 -108 -17 -55 -15 -161 3 -213 29
-82 77 -113 175 -113 69 0 109 15 147 56 34 36 45 76 45 166 0 93 -25 160 -74
195 -30 22 -144 32 -193 17z m134 -66 c13 -9 29 -32 37 -50 30 -72 8 -220 -37
-244 -10 -6 -38 -10 -62 -10 -38 0 -49 5 -70 30 -58 69 -41 253 26 280 35 14
81 11 106 -6z"/>
<path d="M3809 831 l-29 -29 0 24 c0 21 -4 24 -40 24 l-40 0 0 -215 0 -215 39
0 38 0 5 143 c4 107 9 150 22 175 18 35 57 56 87 47 16 -6 19 -1 19 34 0 40
-1 41 -36 41 -26 0 -43 -8 -65 -29z"/>
<path d="M5980 853 c-8 -3 -27 -17 -42 -31 l-28 -26 0 27 c0 25 -3 27 -41 27
-38 0 -41 -2 -35 -22 3 -13 6 -146 6 -295 l0 -273 40 0 40 0 0 100 0 101 31
-23 c42 -31 135 -32 176 -2 56 42 68 77 68 204 0 102 -3 119 -23 151 -12 20
-38 44 -56 53 -33 15 -105 20 -136 9z m107 -88 c41 -46 44 -202 5 -254 -16
-22 -27 -26 -73 -26 -50 0 -55 2 -77 35 -21 31 -23 44 -20 122 2 69 7 92 24
115 36 48 101 52 141 8z"/>
<path d="M6365 846 c-99 -43 -136 -218 -73 -344 31 -63 72 -86 157 -86 125 -1
187 58 198 192 10 125 -35 219 -118 242 -47 14 -128 12 -164 -4z m138 -55 c37
-14 57 -68 57 -156 0 -113 -30 -157 -105 -157 -46 0 -74 18 -92 60 -17 40 -20
154 -5 193 22 56 85 82 145 60z"/>
<path d="M6852 853 c-8 -3 -22 -19 -33 -37 l-19 -31 0 33 c0 30 -2 32 -35 32
l-35 0 0 -215 0 -215 40 0 40 0 0 141 c0 107 4 149 16 174 17 37 61 60 93 50
19 -6 21 -2 21 34 0 41 0 41 -37 40 -21 0 -44 -3 -51 -6z"/>
<path d="M5400 843 c0 -3 6 -14 13 -22 8 -9 39 -52 70 -97 l56 -81 -74 -107
c-41 -59 -75 -109 -75 -112 0 -2 19 -4 43 -4 43 0 43 0 99 84 l55 84 54 -84
c54 -83 54 -84 97 -84 23 0 42 3 42 8 0 4 -28 45 -60 92 -94 132 -92 114 -16
223 36 52 66 98 66 101 0 3 -19 6 -43 6 -43 0 -44 -1 -91 -75 -26 -41 -49 -75
-51 -75 -1 0 -24 34 -50 75 l-46 75 -45 0 c-24 0 -44 -3 -44 -7z"/>
</g>
</svg>
