<?xml version="1.0" encoding="utf-8"?>
<!-- Generator: Adobe Illustrator 23.0.0, SVG Export Plug-In . SVG Version: 6.00 Build 0)  -->
<svg version="1.1" xmlns="http://www.w3.org/2000/svg" xmlns:xlink="http://www.w3.org/1999/xlink" x="0px" y="0px"
	 viewBox="0 0 800 800" style="enable-background:new 0 0 800 800;" xml:space="preserve">
<style type="text/css">
	.st0{fill:url(#SVGID_1_);}
	.st1{fill:url(#SVGID_2_);}
	.st2{fill:url(#SVGID_3_);}
	.st3{fill:url(#SVGID_4_);}
	.st4{fill:url(#SVGID_5_);}
	.st5{fill:url(#SVGID_6_);}
	.st6{fill:url(#SVGID_7_);}
	.st7{fill:url(#SVGID_8_);}
	.st8{fill:#D72836;}
	.st9{font-family:'Arimo';}
	.st10{font-size:60px;}
	.st11{font-size:50px;}
	.st12{fill:#F5A623;}
	.st13{fill:url(#SVGID_9_);}
	.st14{fill:url(#SVGID_10_);}
	.st15{fill-rule:evenodd;clip-rule:evenodd;fill:#D72836;}
</style>
<g id="Empeetex">
	<g>
		<g>
			<linearGradient id="SVGID_1_" gradientUnits="userSpaceOnUse" x1="121.5249" y1="303.5249" x2="687.8164" y2="303.5249">
				<stop  offset="0.2999" style="stop-color:#F5A623"/>
				<stop  offset="0.8274" style="stop-color:#D72836"/>
			</linearGradient>
			<path class="st0" d="M209.2,273.77c11.43,0,17.15,2.16,17.15,6.48c0,0.94-0.35,1.99-1.05,3.15c-2.8,4.32-7.88,6.48-15.22,6.48
				c-4.79,0-9.69-0.84-14.7-2.54c-5.02-1.69-8.81-3.47-11.38-5.34c-10.85,3.15-20.5,7.99-28.96,14.52
				c-8.46,6.54-14.79,13.94-18.99,22.23c-2.22,4.44-3.32,8.75-3.32,12.95c0,6.54,2.71,11.84,8.14,15.92
				c5.43,4.08,13.39,6.13,23.89,6.13c2.92,0,5.95-0.17,9.1-0.52c18.55-1.99,33.31-7.94,44.27-17.85
				c9.21-8.17,13.83-16.74,13.83-25.73c0-7.11-3.44-10.67-10.33-10.67c-8.29,0-17.79,4.44-28.52,13.3c-2.69,2.22-4.96,5.02-6.83,8.4
				c-1.87,3.39-2.8,6.71-2.8,9.98c0,3.27,1.63,5.31,4.9,6.13c1.17,0.47,1.75,1.05,1.75,1.75c0,1.17-1.17,1.64-3.5,1.4
				c-5.6-0.11-8.4-3.79-8.4-11.02c0-7.23,3.67-14,11.02-20.3c10.03-8.63,20.65-12.95,31.85-12.95c8.4,0,13.71,2.63,15.92,7.88
				c0.93,2.45,1.4,4.9,1.4,7.35c0,10.85-6.01,21.06-18.02,30.63c-14.35,11.67-32.55,17.5-54.6,17.5c-13.65,0-24.44-2.54-32.38-7.61
				c-7.94-5.08-11.9-11.7-11.9-19.86c0-4.78,1.52-9.56,4.55-14.35c10.73-17.03,29.05-29.69,54.95-37.97
				c-3.85-4.43-5.77-9.16-5.77-14.18c0-5.01,1.23-9.21,3.67-12.6c4.78-6.53,11.96-11.9,21.53-16.1c11.43-5.02,22.86-7.53,34.3-7.53
				c6.65,0,11.99,1.08,16.01,3.24c4.02,2.16,6.04,5.48,6.04,9.98c0,4.49-1.66,8.29-4.99,11.38c-3.33,3.09-6.8,4.64-10.41,4.64
				c-3.62,0-5.42-0.88-5.42-2.63c0-1.05,0.76-1.57,2.27-1.57l3.5,0.52c2.33,0,4.46-1.25,6.39-3.76c1.92-2.51,2.89-5.1,2.89-7.79
				c0-3.96-2.27-6.88-6.82-8.75c-2.92-1.16-5.66-1.75-8.23-1.75c-2.57,0-4.38,0.06-5.43,0.18c-10.04,0.58-19.83,4.08-29.4,10.5
				c-11.2,7.35-16.8,15.64-16.8,24.85c0,3.38,1.16,6.54,3.5,9.45C195.31,274.94,202.43,273.77,209.2,273.77z M190.83,280.08
				c5.01,3.97,10.79,5.95,17.32,5.95c6.53,0,9.8-1.81,9.8-5.42c0-1.63-2.92-2.45-8.75-2.45
				C203.36,278.15,197.24,278.79,190.83,280.08z"/>
			<linearGradient id="SVGID_2_" gradientUnits="userSpaceOnUse" x1="121.5249" y1="303.5249" x2="687.8164" y2="303.5249">
				<stop  offset="0.2999" style="stop-color:#F5A623"/>
				<stop  offset="0.8274" style="stop-color:#D72836"/>
			</linearGradient>
			<path class="st1" d="M325.57,342.9c-7.94,0-11.9-3.67-11.9-11.02c0-4.2,1.87-9.94,5.6-17.24c3.73-7.29,7.64-13.45,11.73-18.46
				c-7.24,3.5-15.58,9.83-25.03,18.99c-9.45,9.16-16.04,18.75-19.77,28.79c-0.59,0.94-1.58,1.4-2.98,1.4c-2.8,0-4.2-1.58-4.2-4.73
				c1.17-6.42,3.79-13.76,7.88-22.05c1.28-2.68,5.08-10.5,11.38-23.45c-9.1,5.95-16.83,12.34-23.19,19.16
				c-6.36,6.82-12.25,13.68-17.67,20.56c-5.42,6.89-8.49,10.32-9.19,10.32c-1.52,0-2.83-0.7-3.94-2.1c-1.11-1.4-1.66-2.8-1.66-4.2
				c0-2.1,3.03-9.8,9.1-23.1l-10.5,11.02c-2.56,2.57-4.17,3.85-4.81,3.85c-0.64,0-0.96-0.38-0.96-1.14c0-0.76,0.47-1.6,1.4-2.54
				c4.32-4.31,8.17-8.63,11.55-12.95c3.38-4.31,8.98-12.01,16.8-23.1c1.28-1.75,3.09-2.63,5.42-2.63c2.33,0,3.5,1.11,3.5,3.33
				c0,0.82-3.09,6.5-9.28,17.06c-6.18,10.56-9.63,17.18-10.32,19.86c4.78-5.25,11.96-12.31,21.52-21.17
				c14.35-13.3,23.8-19.95,28.35-19.95c1.4,0,2.68,0.41,3.85,1.23c1.17,0.82,1.75,1.72,1.75,2.71c0,0.99-2.28,5.4-6.83,13.21
				c-4.44,8.05-6.88,12.83-7.35,14.35c12.95-10.85,19.42-16.33,19.42-16.45c10.96-8.52,18.84-12.77,23.63-12.77
				c1.4,0,2.71,0.44,3.94,1.31c1.22,0.88,1.84,1.9,1.84,3.06c0,0.23-3.79,5.16-11.38,14.79c-7.58,9.63-11.84,17.53-12.77,23.71
				c-0.24,2.1,0.17,3.67,1.22,4.72c1.05,1.05,2.95,1.58,5.69,1.58c2.74,0,6.76-1.9,12.08-5.69c5.31-3.79,10.7-8.9,16.19-15.31
				c2.1-2.33,3.53-3.5,4.29-3.5c0.76,0,1.14,0.29,1.14,0.88c0,0.82-0.52,1.75-1.58,2.8c-5.72,6.89-11.87,12.75-18.46,17.59
				C334.47,340.48,329.31,342.9,325.57,342.9z"/>
			<linearGradient id="SVGID_3_" gradientUnits="userSpaceOnUse" x1="121.5249" y1="303.5249" x2="687.8164" y2="303.5249">
				<stop  offset="0.2999" style="stop-color:#F5A623"/>
				<stop  offset="0.8274" style="stop-color:#D72836"/>
			</linearGradient>
			<path class="st2" d="M418.32,305.45c0,9.45-5.4,18.4-16.19,26.86c-10.79,8.46-20.15,12.69-28.09,12.69
				c-5.25,0-9.07-0.35-11.46-1.05c-2.39-0.7-5.05-2.8-7.96-6.3c-1.99,1.64-4.67,5.81-8.05,12.51c-3.38,6.71-5.07,12.45-5.07,17.24
				c0,2.21,1.11,5.13,3.32,8.75c0.24,0.58,0.06,1.08-0.52,1.49c-0.58,0.41-1.02,0.61-1.31,0.61c-0.29,0-0.55-0.06-0.79-0.17
				c-4.9-2.69-7.35-7.91-7.35-15.66c0-7.76,6.45-21.18,19.34-40.25c12.89-19.08,21.79-29.43,26.69-31.06
				c1.16-0.23,1.92-0.35,2.27-0.35c1.98,0,2.98,2.16,2.98,6.48c1.16-1.17,3.56-2.27,7.17-3.33c4.43-1.16,7.58-1.75,9.45-1.75
				c4.2,0,7.84,1.2,10.94,3.59C416.78,298.13,418.32,301.37,418.32,305.45z M409.4,303.7c0-4.43-2.63-6.65-7.88-6.65
				s-10.04,1.11-14.35,3.33c-1.99,0.94-7.47,6.07-16.45,15.4c-8.99,9.34-13.47,15.34-13.47,18.02c0,2.1,1.6,3.68,4.81,4.73
				c3.21,1.05,6.44,1.58,9.71,1.58c6.42,0,14.29-3.65,23.63-10.94C404.73,321.87,409.4,313.39,409.4,303.7z"/>
			<linearGradient id="SVGID_4_" gradientUnits="userSpaceOnUse" x1="121.5249" y1="303.5249" x2="687.8164" y2="303.5249">
				<stop  offset="0.2999" style="stop-color:#F5A623"/>
				<stop  offset="0.8274" style="stop-color:#D72836"/>
			</linearGradient>
			<path class="st3" d="M427.25,347.27c-1.29,0-2.45-0.17-3.5-0.52c-7.46-2.1-11.2-6.3-11.2-12.6c0-8.16,5.14-17.61,15.4-28.35
				c10.26-10.73,19.48-16.1,27.65-16.1c2.68,0,4.87,0.73,6.56,2.19c1.69,1.46,2.54,3.24,2.54,5.34c0,6.54-4.93,12.77-14.79,18.73
				c-9.86,5.95-17.88,8.92-24.06,8.92c-0.94,0-1.75-0.11-2.45-0.35c-1.75,3.15-2.63,6.48-2.63,9.98c0,6.07,2.89,9.1,8.66,9.1
				c5.78,0,13.27-3.91,22.49-11.73c7.12-5.71,13.18-11.78,18.2-18.2c1.05-1.4,1.95-2.1,2.71-2.1c0.76,0,1.14,0.35,1.14,1.05
				s-0.47,1.69-1.4,2.98c-6.3,8.29-13.88,15.64-22.75,22.05C440.96,344.07,433.43,347.27,427.25,347.27z M460.32,296.88
				c0-1.4-1.49-2.1-4.46-2.1c-2.97,0-7.21,2.27-12.69,6.83c-7.35,6.07-13.07,12.42-17.15,19.07c0.7,0.24,1.46,0.35,2.27,0.35
				c4.43,0,10.35-2.36,17.76-7.09c7.41-4.73,12.04-9.89,13.91-15.49C460.21,297.87,460.32,297.34,460.32,296.88z"/>
			<linearGradient id="SVGID_5_" gradientUnits="userSpaceOnUse" x1="121.5249" y1="303.5249" x2="687.8164" y2="303.5249">
				<stop  offset="0.2999" style="stop-color:#F5A623"/>
				<stop  offset="0.8274" style="stop-color:#D72836"/>
			</linearGradient>
			<path class="st4" d="M472.22,347.27c-1.29,0-2.45-0.17-3.5-0.52c-7.46-2.1-11.2-6.3-11.2-12.6c0-8.16,5.14-17.61,15.4-28.35
				c10.26-10.73,19.48-16.1,27.65-16.1c2.68,0,4.87,0.73,6.56,2.19c1.69,1.46,2.54,3.24,2.54,5.34c0,6.54-4.93,12.77-14.79,18.73
				c-9.86,5.95-17.88,8.92-24.06,8.92c-0.94,0-1.75-0.11-2.45-0.35c-1.75,3.15-2.63,6.48-2.63,9.98c0,6.07,2.89,9.1,8.66,9.1
				c5.78,0,13.27-3.91,22.49-11.73c7.12-5.71,13.18-11.78,18.2-18.2c1.05-1.4,1.95-2.1,2.71-2.1c0.76,0,1.14,0.35,1.14,1.05
				s-0.47,1.69-1.4,2.98c-6.3,8.29-13.88,15.64-22.75,22.05C485.93,344.07,478.4,347.27,472.22,347.27z M505.3,296.88
				c0-1.4-1.49-2.1-4.46-2.1c-2.97,0-7.21,2.27-12.69,6.83c-7.35,6.07-13.07,12.42-17.15,19.07c0.7,0.24,1.46,0.35,2.27,0.35
				c4.43,0,10.35-2.36,17.76-7.09c7.41-4.73,12.04-9.89,13.91-15.49C505.18,297.87,505.3,297.34,505.3,296.88z"/>
			<linearGradient id="SVGID_6_" gradientUnits="userSpaceOnUse" x1="121.5249" y1="303.5249" x2="687.8164" y2="303.5249">
				<stop  offset="0.2999" style="stop-color:#F5A623"/>
				<stop  offset="0.8274" style="stop-color:#D72836"/>
			</linearGradient>
			<path class="st5" d="M553.94,288.65l25.2-0.35c0.35,0.24,0.53,0.41,0.53,0.53c0,1.05-7.26,2.51-21.79,4.38
				c-14.52,1.87-22.37,2.97-23.54,3.32c-2.22,1.99-6.3,7.91-12.25,17.76c-5.95,9.86-8.92,17.06-8.92,21.61
				c0,4.32,2.97,6.48,8.92,6.48c2.8,0,6.47-0.88,11.02-2.63c4.55-1.75,8.05-3.38,10.5-4.9c6.53-4.08,13.53-10.09,21-18.02
				c1.63-1.63,2.74-2.45,3.33-2.45c0.35,0,0.53,0.35,0.53,1.05c0,0.7-0.88,2.1-2.63,4.2c-6.07,7.47-12.89,13.48-20.48,18.02
				c-9.1,5.6-17.79,8.4-26.07,8.4c-3.62,0-6.56-0.79-8.84-2.36s-3.41-4.75-3.41-9.54c0-4.78,2.1-11.34,6.3-19.69
				c4.2-8.34,7.41-14.55,9.63-18.64c-1.64,0.35-3.04,0.52-4.2,0.52c-3.38,0-5.08-1.34-5.08-4.02c0-1.98,1.4-3.38,4.2-4.2
				c0.35,0,0.88-0.06,1.58-0.17h10.15c2.1-2.68,4.49-5.78,7.18-9.28c3.26-4.2,5.48-6.3,6.65-6.3c1.17,0,2.63,0.47,4.38,1.4
				c1.75,0.94,2.63,2.04,2.63,3.33c0,1.29-2.8,5.07-8.4,11.38C545.08,288.59,549.04,288.65,553.94,288.65z"/>
			<linearGradient id="SVGID_7_" gradientUnits="userSpaceOnUse" x1="121.5249" y1="303.5249" x2="687.8164" y2="303.5249">
				<stop  offset="0.2999" style="stop-color:#F5A623"/>
				<stop  offset="0.8274" style="stop-color:#D72836"/>
			</linearGradient>
			<path class="st6" d="M569.17,347.27c-1.29,0-2.45-0.17-3.5-0.52c-7.46-2.1-11.2-6.3-11.2-12.6c0-8.16,5.14-17.61,15.4-28.35
				c10.26-10.73,19.48-16.1,27.65-16.1c2.68,0,4.87,0.73,6.56,2.19c1.69,1.46,2.54,3.24,2.54,5.34c0,6.54-4.93,12.77-14.79,18.73
				c-9.86,5.95-17.88,8.92-24.06,8.92c-0.94,0-1.75-0.11-2.45-0.35c-1.75,3.15-2.63,6.48-2.63,9.98c0,6.07,2.89,9.1,8.66,9.1
				c5.78,0,13.27-3.91,22.49-11.73c7.12-5.71,13.18-11.78,18.2-18.2c1.05-1.4,1.95-2.1,2.71-2.1c0.76,0,1.14,0.35,1.14,1.05
				s-0.47,1.69-1.4,2.98c-6.3,8.29-13.88,15.64-22.75,22.05C582.88,344.07,575.35,347.27,569.17,347.27z M602.24,296.88
				c0-1.4-1.49-2.1-4.46-2.1c-2.97,0-7.21,2.27-12.69,6.83c-7.35,6.07-13.07,12.42-17.15,19.07c0.7,0.24,1.46,0.35,2.27,0.35
				c4.43,0,10.35-2.36,17.76-7.09c7.41-4.73,12.04-9.89,13.91-15.49C602.13,297.87,602.24,297.34,602.24,296.88z"/>
			<linearGradient id="SVGID_8_" gradientUnits="userSpaceOnUse" x1="121.5249" y1="303.5249" x2="687.8164" y2="303.5249">
				<stop  offset="0.2999" style="stop-color:#F5A623"/>
				<stop  offset="0.8274" style="stop-color:#D72836"/>
			</linearGradient>
			<path class="st7" d="M668.57,337.3c-8.4,7-15.37,10.5-20.91,10.5c-5.54,0-9.19-4.02-10.94-12.07c-0.58-3.27-0.99-8.17-1.22-14.7
				c-14.24,15.17-24.91,28.88-32.03,41.13c-0.35,0.46-0.81,0.7-1.4,0.7c-1.4,0-2.1-0.64-2.1-1.93c0-0.35,0.12-0.64,0.35-0.88
				c10.85-17.15,22.58-32.2,35.18-45.15c0.46-15.98,0.76-24.96,0.88-26.95c-2.69,0.58-8.4,7.35-17.15,20.3
				c-4.32,6.54-8.11,11.55-11.38,15.05s-5.22,5.51-5.86,6.04c-0.64,0.52-1.28,0.79-1.92,0.79c-0.64,0-0.96-0.29-0.96-0.88
				c0-0.58,1.87-2.94,5.6-7.09c3.73-4.14,8.69-10.91,14.88-20.3c6.18-9.39,10.62-15.31,13.3-17.76c2.68-2.45,5.19-3.68,7.52-3.68
				c2.33,0,4.03,0.32,5.08,0.96c1.05,0.64,1.43,1.75,1.14,3.32c-0.29,1.58-0.53,2.95-0.7,4.11c-0.17,1.17-0.32,2.51-0.44,4.02
				c-0.7,5.48-1.11,9.98-1.22,13.48c5.71-5.48,18.61-16.74,38.67-33.78c0.23-0.23,0.64-0.35,1.22-0.35c0.58,0,1.34,0.5,2.28,1.49
				c0.93,0.99,1.4,1.99,1.4,2.98c0,0.99-0.47,1.96-1.4,2.89c-3.74,3.04-10.24,7.91-19.51,14.61c-9.28,6.71-16.95,12.86-23.01,18.46
				c-0.12,2.45-0.17,5.77-0.17,9.98c0,4.2,0.53,8.05,1.58,11.55c1.4,4.55,3.96,6.83,7.7,6.83c6.65,0,16.91-7.99,30.8-23.98
				c1.17-1.17,2.04-1.75,2.63-1.75c0.58,0,0.88,0.38,0.88,1.14c0,0.76-0.47,1.66-1.4,2.71C678.66,327.62,672.88,333.69,668.57,337.3
				z"/>
		</g>
	</g>
	<g>
		<text transform="matrix(1 0 0 1 235.064 468.9785)" class="st8 st9 st10">The Textile Hub</text>
	</g>
	<g>
		<text transform="matrix(1 0 0 1 230.3403 520.8936)" class="st8 st9 st11">Import - Export</text>
	</g>
</g>
<g id="Layer_4">
	<circle class="st12" cx="615.5" cy="387.5" r="7.5"/>
	<circle class="st12" cx="639.5" cy="387.5" r="7.5"/>
	<circle class="st12" cx="660.5" cy="387.5" r="7.5"/>
</g>
<g id="lines">
	<linearGradient id="SVGID_9_" gradientUnits="userSpaceOnUse" x1="122" y1="393" x2="600" y2="393">
		<stop  offset="0" style="stop-color:#D72836"/>
		<stop  offset="0.7496" style="stop-color:#F5A623"/>
	</linearGradient>
	<rect x="122" y="391" class="st13" width="478" height="4"/>
	<linearGradient id="SVGID_10_" gradientUnits="userSpaceOnUse" x1="122" y1="383" x2="600" y2="383">
		<stop  offset="0" style="stop-color:#D72836"/>
		<stop  offset="0.7496" style="stop-color:#F5A623"/>
	</linearGradient>
	<rect x="122" y="381" class="st14" width="478" height="4"/>
</g>
<g id="yarn">
	<g id="svgg">
		<path id="path0" class="st15" d="M146.15,414.24c-0.23,0.23-0.43,1.96-0.43,3.84v3.41h-3.22c-11.94,0-14.84,6.73-16.94,39.31
			c-0.2,3.16-0.66,8.77-1.01,12.46c-0.35,3.69-0.77,8.01-0.92,9.59c-2.86,29.77-2.84,30.3,1.31,37.83c0.88,1.6,6.16,3.72,9.24,3.72
			h2.6l0.01,3.04c0.02,4.95-1.3,4.67,21.45,4.48l20.41-0.17l0.19-3.68l0.19-3.68l2.37,0c6.33-0.01,10.87-3.37,12.64-9.37
			c1.03-3.5,0.92-5.58-1.97-37.29c-0.53-5.8-1.54-17.82-2.25-26.72c-1.88-23.55-5.11-29.53-15.93-29.53h-3.22v-2.82
			c0-5.09,0.62-4.85-12.43-4.85C151.82,413.81,146.39,414,146.15,414.24 M166.7,419.73c-0.2,1.4-0.44,1.44-8.67,1.62l-8.47,0.18
			v-1.62v-1.62h8.67C166.86,418.29,166.91,418.29,166.7,419.73 M147.32,429.15c1.13,22.45,16.56,41.7,36.12,45.06
			c3.84,0.66,4.17,0.84,4.36,2.46c0.18,1.53,0.02,1.71-1.28,1.44c-0.82-0.17-2.5-0.47-3.74-0.67c-12.25-1.95-26.16-13.19-32.9-26.57
			c-4.4-8.74-7.2-25.91-4.16-25.45C146.96,425.61,147.16,426.08,147.32,429.15 M154.56,431.02c2.46,18.45,15.1,33.61,29.71,35.61
			c2.74,0.38,3,0.56,3,2.16c0,1.74-0.02,1.74-3.04,1.19c-17.91-3.29-32.69-21.79-32.75-40.99
			C151.47,422.42,153.61,423.82,154.56,431.02 M161.78,430.48c1.08,13.33,9.56,24.54,21.12,27.94c3.94,1.16,5.65,3.97,2.41,3.97
			c-11.96,0-26.75-18.63-26.79-33.76C158.5,422.49,161.26,424.06,161.78,430.48 M168.86,430.57c0.8,8.8,5.72,15.93,13.46,19.52
			c2.91,1.35,3.68,2.01,3.68,3.17c0,2.1-0.38,2.04-6.38-1.09c-8.25-4.3-14.07-14.17-14.07-23.85
			C165.54,422.43,168.29,424.29,168.86,430.57 M174.76,426.12c0.13,0.44,0.68,2.71,1.22,5.05c1.16,5.02,3.66,8.87,6.98,10.77
			c2.08,1.19,3.59,4.48,2.05,4.48c-5.61,0-14.76-14.7-12.62-20.28C172.8,425.09,174.46,425.07,174.76,426.12 M140.53,429.66
			c0.1,20.47,14.73,42.19,33.44,49.62c4.2,1.67,13.91,3.75,13.99,2.99c0.02-0.21,0.32,0.31,0.66,1.16c0.37,0.93,0.39,1.78,0.03,2.13
			c-0.61,0.61-10.85-1.04-12.78-2.06c-0.58-0.31-2.33-1.03-3.88-1.6c-1.55-0.57-3.53-1.6-4.4-2.29c-0.87-0.68-1.87-1.24-2.23-1.24
			c-0.36,0-2.26-1.2-4.23-2.67c-11.63-8.68-19.24-21.16-22.47-36.83c-2.04-9.9-1.77-12.29,1.43-12.84
			C140.31,425.99,140.52,427.63,140.53,429.66 M183.41,432.67c0.96,2.56,1.32,4.79,0.77,4.79c-1.08,0-3.99-4.96-4.35-7.42
			l-0.36-2.48l1.73,1.92C182.15,430.53,183.15,431.97,183.41,432.67 M136.42,447.34c6.41,21.93,27.59,40.6,48,42.33
			c2.62,0.22,4.76,0.62,4.76,0.9c0,0.27,0.19,0.99,0.43,1.61c1.11,2.9-15.4-0.44-24.08-4.87c-19.76-10.08-37.93-39.33-33.2-53.44
			l0.83-2.46l1.15,6.36C134.96,441.25,135.9,445.56,136.42,447.34 M134.38,460.79c10.18,20.55,30.21,35.15,50.18,36.57
			c2.9,0.21,5.27,0.6,5.27,0.87c0,0.27,0.19,0.99,0.42,1.6c1.58,4.11-26.71-3.24-33.15-8.61c-0.46-0.38-2.6-1.99-4.74-3.56
			c-10.17-7.46-22.62-24.82-22.62-31.53c0-3.01,0.73-3.93,1.52-1.92C131.59,455.02,132.99,457.98,134.38,460.79 M131,470.22
			c0.01,0.26-0.55,0.48-1.26,0.48c-1.39,0-1.46-0.21-0.86-2.48l0.41-1.52l0.84,1.52C130.6,469.06,130.99,469.96,131,470.22
			 M134.9,475.55c1.08,1.3,0.07,1.99-3.75,2.57c-3.14,0.47-3.61,0.23-3.04-1.57C128.74,474.59,133.52,473.89,134.9,475.55
			 M139.33,481.25c1.57,1.89-3.87,4.45-10.07,4.72c-3.79,0.17-2.94-2.83,0.96-3.4c1.67-0.24,4.04-0.82,5.27-1.28
			C138.49,480.16,138.43,480.16,139.33,481.25 M144.96,486.81c1.25,1.25,0.96,1.56-3.23,3.56c-4.66,2.21-5.82,2.53-11.24,3.03
			l-4.03,0.38l0.21-1.79c0.2-1.75,0.33-1.8,5.25-2.25c3.48-0.32,5.95-0.95,7.99-2.04C143.3,485.87,143.91,485.76,144.96,486.81
			 M151.09,493.19c-3.19,5.17-25.7,10.59-25.05,6.04c0.17-1.22,0.73-1.4,5.63-1.76c6.04-0.44,11.33-2.19,15.12-4.98
			C149.18,490.73,152.3,491.23,151.09,493.19 M157.19,496.23c1.2,0.76,0.27,1.92-3.62,4.54c-10.03,6.77-28.78,10.86-28.06,6.13
			c0.19-1.24,0.72-1.4,5.58-1.74c8.55-0.6,15.06-2.9,21.35-7.54C155.25,495.55,155.83,495.38,157.19,496.23 M164.52,499.85
			c1.64,0.63-10.97,11.12-13.38,11.12c-0.24,0-1.8,0.69-3.47,1.53c-2.84,1.43-7.41,2.68-11.85,3.25c-8.25,1.06-8.54,1.05-9.24-0.24
			c-1.23-2.29-0.8-2.62,3.42-2.62c9.54,0,20.72-4.15,28.6-10.62C162.06,499.43,162.72,499.16,164.52,499.85 M171.81,502.58
			c1.13,0.72-5.21,7.24-10.61,10.92c-7.98,5.44-10.6,6.44-16.72,6.38l-5.48-0.05l3.52-0.87c1.93-0.48,5.02-1.6,6.87-2.5
			c1.84-0.9,3.49-1.63,3.67-1.63c1.41,0,8.53-5.13,13.09-9.42C169.8,501.96,170.38,501.67,171.81,502.58 M180.08,504.85
			c1.7,1.7-13.89,15.08-17.58,15.08h-2.95l4.48-3.15c2.46-1.74,6.47-5.29,8.91-7.89C177.01,504.53,178.77,503.53,180.08,504.85
			 M188.55,505.59c0,2.89-11.17,14.34-13.98,14.33l-2.32-0.01l3.72-3.62c2.05-1.99,5.04-5.3,6.65-7.34
			C185.17,505.7,188.55,503.78,188.55,505.59 M189.36,515.99c-0.67,0.89-1.95,2.18-2.86,2.85c-3.15,2.35-3,0.74,0.31-3.42
			C190.22,511.16,192.58,511.68,189.36,515.99 M175.13,526v1.6h-17.26h-17.26V526v-1.6h17.26h17.26V526"/>
	</g>
</g>
</svg>
