<svg version="1.1" xmlns="http://www.w3.org/2000/svg" xmlns:xlink="http://www.w3.org/1999/xlink"
    x="0px" y="0px"
    width="100%" height="100%"
    viewBox="90 400 140 140"
    xml:space="preserve">
  <style type="text/css">
    .st15{fill:#D72836;}
  </style>
  <g id="yarn">
      <path id="path0" class="st15" d="M146.15,414.24c-0.23,0.23-0.43,1.96-0.43,3.84v3.41h-3.22c-11.94,0-14.84,6.73-16.94,39.31
          c-0.2,3.16-0.66,8.77-1.01,12.46c-0.35,3.69-0.77,8.01-0.92,9.59c-2.86,29.77-2.84,30.3,1.31,37.83c0.88,1.6,6.16,3.72,9.24,3.72
          h2.6l0.01,3.04c0.02,4.95-1.3,4.67,21.45,4.48l20.41-0.17l0.19-3.68l0.19-3.68l2.37,0c6.33-0.01,10.87-3.37,12.64-9.37
          c1.03-3.5,0.92-5.58-1.97-37.29c-0.53-5.8-1.54-17.82-2.25-26.72c-1.88-23.55-5.11-29.53-15.93-29.53h-3.22v-2.82
          c0-5.09,0.62-4.85-12.43-4.85C151.82,413.81,146.39,414,146.15,414.24 M166.7,419.73c-0.2,1.4-0.44,1.44-8.67,1.62l-8.47,0.18
          v-1.62v-1.62h8.67C166.86,418.29,166.91,418.29,166.7,419.73 M147.32,429.15c1.13,22.45,16.56,41.7,36.12,45.06
          c3.84,0.66,4.17,0.84,4.36,2.46c0.18,1.53,0.02,1.71-1.28,1.44c-0.82-0.17-2.5-0.47-3.74-0.67c-12.25-1.95-26.16-13.19-32.9-26.57
          c-4.4-8.74-7.2-25.91-4.16-25.45C146.96,425.61,147.16,426.08,147.32,429.15 M154.56,431.02c2.46,18.45,15.1,33.61,29.71,35.61
          c2.74,0.38,3,0.56,3,2.16c0,1.74-0.02,1.74-3.04,1.19c-17.91-3.29-32.69-21.79-32.75-40.99
          C151.47,422.42,153.61,423.82,154.56,431.02 M161.78,430.48c1.08,13.33,9.56,24.54,21.12,27.94c3.94,1.16,5.65,3.97,2.41,3.97
          c-11.96,0-26.75-18.63-26.79-33.76C158.5,422.49,161.26,424.06,161.78,430.48 M168.86,430.57c0.8,8.8,5.72,15.93,13.46,19.52
          c2.91,1.35,3.68,2.01,3.68,3.17c0,2.1-0.38,2.04-6.38-1.09c-8.25-4.3-14.07-14.17-14.07-23.85
          C165.54,422.43,168.29,424.29,168.86,430.57 M174.76,426.12c0.13,0.44,0.68,2.71,1.22,5.05c1.16,5.02,3.66,8.87,6.98,10.77
          c2.08,1.19,3.59,4.48,2.05,4.48c-5.61,0-14.76-14.7-12.62-20.28C172.8,425.09,174.46,425.07,174.76,426.12 M140.53,429.66
          c0.1,20.47,14.73,42.19,33.44,49.62c4.2,1.67,13.91,3.75,13.99,2.99c0.02-0.21,0.32,0.31,0.66,1.16c0.37,0.93,0.39,1.78,0.03,2.13
          c-0.61,0.61-10.85-1.04-12.78-2.06c-0.58-0.31-2.33-1.03-3.88-1.6c-1.55-0.57-3.53-1.6-4.4-2.29c-0.87-0.68-1.87-1.24-2.23-1.24
          c-0.36,0-2.26-1.2-4.23-2.67c-11.63-8.68-19.24-21.16-22.47-36.83c-2.04-9.9-1.77-12.29,1.43-12.84
          C140.31,425.99,140.52,427.63,140.53,429.66 M183.41,432.67c0.96,2.56,1.32,4.79,0.77,4.79c-1.08,0-3.99-4.96-4.35-7.42
          l-0.36-2.48l1.73,1.92C182.15,430.53,183.15,431.97,183.41,432.67 M136.42,447.34c6.41,21.93,27.59,40.6,48,42.33
          c2.62,0.22,4.76,0.62,4.76,0.9c0,0.27,0.19,0.99,0.43,1.61c1.11,2.9-15.4-0.44-24.08-4.87c-19.76-10.08-37.93-39.33-33.2-53.44
          l0.83-2.46l1.15,6.36C134.96,441.25,135.9,445.56,136.42,447.34 M134.38,460.79c10.18,20.55,30.21,35.15,50.18,36.57
          c2.9,0.21,5.27,0.6,5.27,0.87c0,0.27,0.19,0.99,0.42,1.6c1.58,4.11-26.71-3.24-33.15-8.61c-0.46-0.38-2.6-1.99-4.74-3.56
          c-10.17-7.46-22.62-24.82-22.62-31.53c0-3.01,0.73-3.93,1.52-1.92C131.59,455.02,132.99,457.98,134.38,460.79 M131,470.22
          c0.01,0.26-0.55,0.48-1.26,0.48c-1.39,0-1.46-0.21-0.86-2.48l0.41-1.52l0.84,1.52C130.6,469.06,130.99,469.96,131,470.22
            M134.9,475.55c1.08,1.3,0.07,1.99-3.75,2.57c-3.14,0.47-3.61,0.23-3.04-1.57C128.74,474.59,133.52,473.89,134.9,475.55
            M139.33,481.25c1.57,1.89-3.87,4.45-10.07,4.72c-3.79,0.17-2.94-2.83,0.96-3.4c1.67-0.24,4.04-0.82,5.27-1.28
          C138.49,480.16,138.43,480.16,139.33,481.25 M144.96,486.81c1.25,1.25,0.96,1.56-3.23,3.56c-4.66,2.21-5.82,2.53-11.24,3.03
          l-4.03,0.38l0.21-1.79c0.2-1.75,0.33-1.8,5.25-2.25c3.48-0.32,5.95-0.95,7.99-2.04C143.3,485.87,143.91,485.76,144.96,486.81
            M151.09,493.19c-3.19,5.17-25.7,10.59-25.05,6.04c0.17-1.22,0.73-1.4,5.63-1.76c6.04-0.44,11.33-2.19,15.12-4.98
          C149.18,490.73,152.3,491.23,151.09,493.19 M157.19,496.23c1.2,0.76,0.27,1.92-3.62,4.54c-10.03,6.77-28.78,10.86-28.06,6.13
          c0.19-1.24,0.72-1.4,5.58-1.74c8.55-0.6,15.06-2.9,21.35-7.54C155.25,495.55,155.83,495.38,157.19,496.23 M164.52,499.85
          c1.64,0.63-10.97,11.12-13.38,11.12c-0.24,0-1.8,0.69-3.47,1.53c-2.84,1.43-7.41,2.68-11.85,3.25c-8.25,1.06-8.54,1.05-9.24-0.24
          c-1.23-2.29-0.8-2.62,3.42-2.62c9.54,0,20.72-4.15,28.6-10.62C162.06,499.43,162.72,499.16,164.52,499.85 M171.81,502.58
          c1.13,0.72-5.21,7.24-10.61,10.92c-7.98,5.44-10.6,6.44-16.72,6.38l-5.48-0.05l3.52-0.87c1.93-0.48,5.02-1.6,6.87-2.5
          c1.84-0.9,3.49-1.63,3.67-1.63c1.41,0,8.53-5.13,13.09-9.42C169.8,501.96,170.38,501.67,171.81,502.58 M180.08,504.85
          c1.7,1.7-13.89,15.08-17.58,15.08h-2.95l4.48-3.15c2.46-1.74,6.47-5.29,8.91-7.89C177.01,504.53,178.77,503.53,180.08,504.85
            M188.55,505.59c0,2.89-11.17,14.34-13.98,14.33l-2.32-0.01l3.72-3.62c2.05-1.99,5.04-5.3,6.65-7.34
          C185.17,505.7,188.55,503.78,188.55,505.59 M189.36,515.99c-0.67,0.89-1.95,2.18-2.86,2.85c-3.15,2.35-3,0.74,0.31-3.42
          C190.22,511.16,192.58,511.68,189.36,515.99 M175.13,526v1.6h-17.26h-17.26V526v-1.6h17.26h17.26V526"/>
  </g>
</svg>
